<mxfile host="65bd71144e">
    <diagram id="mVndsU5VpwnMBORzo39e" name="Page-1">
        <mxGraphModel dx="1554" dy="1067" grid="1" gridSize="10" guides="1" tooltips="1" connect="1" arrows="1" fold="1" page="1" pageScale="1" pageWidth="1169" pageHeight="827" math="0" shadow="0">
            <root>
                <mxCell id="0"/>
                <mxCell id="1" parent="0"/>
                <mxCell id="3" value="&lt;font style=&quot;font-size: 42px;&quot;&gt;=IF(B5=&lt;span style=&quot;color: rgb(63, 63, 63); font-family: &amp;quot;Lucida Console&amp;quot;;&quot;&gt;&quot;&quot;&lt;/span&gt;,&lt;font face=&quot;Lucida Console&quot;&gt;&quot;&quot;&lt;/font&gt;,&amp;nbsp; IF(B5&amp;gt;=$B$1,&lt;span style=&quot;color: rgb(63, 63, 63); font-family: &amp;quot;Lucida Console&amp;quot;;&quot;&gt;&quot;&lt;/span&gt;合格&lt;span style=&quot;color: rgb(63, 63, 63); font-family: &amp;quot;Lucida Console&amp;quot;;&quot;&gt;&quot;&lt;/span&gt;,&lt;span style=&quot;color: rgb(63, 63, 63); font-family: &amp;quot;Lucida Console&amp;quot;;&quot;&gt;&quot;&lt;/span&gt;不合格&lt;span style=&quot;color: rgb(63, 63, 63); font-family: &amp;quot;Lucida Console&amp;quot;;&quot;&gt;&quot;&lt;/span&gt;) )&lt;/font&gt;" style="text;html=1;align=center;verticalAlign=middle;whiteSpace=wrap;rounded=0;fontFamily=BIZ UDPGothic;fontSource=https%3A%2F%2Ffonts.googleapis.com%2Fcss%3Ffamily%3DBIZ%2BUDPGothic;fontSize=32;movable=0;resizable=0;rotatable=0;deletable=0;editable=0;locked=1;connectable=0;" vertex="1" parent="1">
                    <mxGeometry x="5" y="374" width="1160" height="80" as="geometry"/>
                </mxCell>
                <mxCell id="4" value="" style="rounded=1;whiteSpace=wrap;html=1;fillColor=none;strokeWidth=8;strokeColor=light-dark(#e4266f, #ededed);" vertex="1" parent="1">
                    <mxGeometry x="393" y="384" width="697" height="60" as="geometry"/>
                </mxCell>
                <mxCell id="5" value="" style="rounded=1;whiteSpace=wrap;html=1;fillColor=none;strokeWidth=8;strokeColor=light-dark(#416ac4, #ededed);" vertex="1" parent="1">
                    <mxGeometry x="30" y="370" width="1110" height="90" as="geometry"/>
                </mxCell>
            </root>
        </mxGraphModel>
    </diagram>
</mxfile>